<svg width="17" height="25" viewBox="0 0 17 25" fill="none" xmlns="http://www.w3.org/2000/svg">
    <g>
        <path d="M6.16992 7.58594H8.66992V4.60156H6.16992C5.69076 4.60156 5.23763 4.69531 4.81055 4.88281C4.38346 5.0599 4.01107 5.30729 3.69336 5.625C3.37565 5.94271 3.12826 6.3151 2.95117 6.74219C2.76367 7.16927 2.66992 7.6224 2.66992 8.10156V9.58594H0.669922V12.6016H2.66992V20.6016H5.68555V12.6016H8.16992L8.66992 9.58594H5.68555V8.10156C5.68555 7.96615 5.73242 7.84635 5.82617 7.74219C5.91992 7.63802 6.03451 7.58594 6.16992 7.58594Z" fill="white"/>
    </g>
    <defs>
        <clipPath id="clip0_1_131">
            <rect width="16" height="24" fill="white" transform="matrix(1 0 0 -1 0.669922 24.5)"/>
        </clipPath>
    </defs>
</svg>
