<svg width="19" height="25" viewBox="0 0 19 25" fill="none" xmlns="http://www.w3.org/2000/svg">
    <g clip-path="url(#clip0_1_134)">
        <path d="M9.84581 10.6173V5.46144H12.8612L13.4862 10.4455C13.5278 10.7059 13.507 10.9506 13.4237 11.1798C13.3404 11.4089 13.2102 11.6381 13.0331 11.8672C12.8664 12.0443 12.6711 12.1927 12.4472 12.3125C12.2232 12.4323 11.9759 12.4922 11.7051 12.4922C11.1738 12.4922 10.7312 12.3125 10.377 11.9532C10.0229 11.5938 9.84581 11.1485 9.84581 10.6173ZM5.31488 10.4455L5.93983 5.46144H8.93962V10.6173C8.93962 11.1069 8.76516 11.5261 8.41622 11.875C8.06729 12.224 7.65326 12.3984 7.17412 12.3984C6.90331 12.3984 6.65853 12.349 6.4398 12.25C6.22106 12.1511 6.02316 11.9922 5.84609 11.7735C5.66902 11.6381 5.53622 11.448 5.44768 11.2032C5.35915 10.9584 5.31488 10.7059 5.31488 10.4455ZM0.940186 10.6173L2.47133 5.46144H5.03365L4.42432 10.9767C4.38265 11.4246 4.18996 11.7891 3.84623 12.0703C3.50251 12.3516 3.13274 12.4922 2.73693 12.4922C2.23697 12.4922 1.81252 12.3177 1.46359 11.9688C1.11465 11.6199 0.940186 11.2006 0.940186 10.7111V10.6173ZM2.01823 19.3355V13.1953C2.10156 13.2369 2.20833 13.263 2.33852 13.2734C2.46872 13.2838 2.60153 13.289 2.73693 13.289C3.1744 13.289 3.59885 13.1822 4.01028 12.9687C4.42171 12.7552 4.73159 12.4453 4.9399 12.0391C4.99198 12.0912 5.04146 12.1407 5.08833 12.1875C5.1352 12.2344 5.17947 12.3047 5.22113 12.3984C5.48153 12.6693 5.7862 12.8854 6.13513 13.0468C6.48407 13.2083 6.86164 13.289 7.26787 13.289C7.70534 13.289 8.12978 13.1822 8.54121 12.9687C8.95264 12.7552 9.26772 12.4453 9.48646 12.0391C9.71561 12.4453 10.0177 12.7552 10.3926 12.9687C10.7676 13.1822 11.1738 13.289 11.6113 13.289C12.0175 13.289 12.3951 13.2083 12.744 13.0468C13.093 12.8854 13.3976 12.6693 13.658 12.3984C13.6997 12.3568 13.744 12.3099 13.7908 12.2578C13.8377 12.2058 13.8872 12.1328 13.9393 12.0391C14.158 12.4453 14.4549 12.7552 14.8298 12.9687C15.2048 13.1822 15.6162 13.289 16.0641 13.289C16.1995 13.289 16.3193 13.2838 16.4235 13.2734C16.5276 13.263 16.6422 13.2369 16.7672 13.1953V19.3355C16.7672 19.5125 16.7099 19.661 16.5953 19.7807C16.4808 19.9005 16.3297 19.9604 16.1422 19.9604H2.64319C2.46612 19.9604 2.31769 19.9005 2.19791 19.7807C2.07813 19.661 2.01823 19.5125 2.01823 19.3355ZM13.8455 17.4606H14.908C14.8246 17.6897 14.6788 17.8798 14.4705 18.0309C14.2622 18.1819 14.0174 18.2574 13.7362 18.2574C13.3924 18.2574 13.1034 18.1402 12.869 17.9059C12.6347 17.6715 12.5175 17.3773 12.5175 17.0231C12.5175 16.6586 12.6347 16.3591 12.869 16.1248C13.1034 15.8904 13.3924 15.7732 13.7362 15.7732C13.9236 15.7732 14.0877 15.7993 14.2283 15.8513C14.3689 15.9034 14.5069 15.9972 14.6423 16.1326H14.8142L15.4392 15.5076V15.3357C15.2204 15.1483 14.9783 14.9972 14.7127 14.8827C14.447 14.7681 14.158 14.7108 13.8455 14.7108C13.2206 14.7108 12.6789 14.9399 12.2206 15.3982C11.7623 15.8565 11.5332 16.3982 11.5332 17.0231C11.5332 17.6481 11.7623 18.1897 12.2206 18.648C12.6789 19.1063 13.2206 19.3355 13.8455 19.3355C14.4705 19.3355 14.9965 19.1063 15.4235 18.648C15.8506 18.1897 16.0641 17.6481 16.0641 17.0231C16.0641 16.9815 16.0641 16.9216 16.0641 16.8435C16.0641 16.7653 16.0641 16.7054 16.0641 16.6638L15.9704 16.57H13.8455L13.7362 16.6638V17.4606H13.8455ZM14.3611 10.9767L13.658 5.46144H16.236L17.8452 10.6173V10.7111C17.8452 11.2006 17.6708 11.6042 17.3218 11.9219C16.9729 12.2396 16.5537 12.3984 16.0641 12.3984C15.6683 12.4401 15.2986 12.3125 14.9548 12.0157C14.6111 11.7188 14.4132 11.3725 14.3611 10.9767Z" fill="white"/>
    </g>
    <defs>
        <clipPath id="clip0_1_134">
            <rect width="17.78" height="24" fill="white" transform="matrix(1 0 0 -1 0.940186 24.5)"/>
        </clipPath>
    </defs>
</svg>
