<svg width="17" height="25" viewBox="0 0 17 25" fill="none" xmlns="http://www.w3.org/2000/svg">
    <g clip-path="url(#clip0_1_137)">
        <path d="M8.97998 14.8047C8.84456 14.9401 8.8029 15.1016 8.85498 15.2891C8.90706 15.4766 8.93311 15.5703 8.93311 15.5703L10.9644 18.9766C10.9644 18.9766 11.0321 19.0495 11.1675 19.1953C11.3029 19.3411 11.4435 19.4141 11.5894 19.4141C11.7352 19.4141 11.868 19.375 11.9878 19.2969C12.1076 19.2188 12.1675 19.1797 12.1675 19.1797L13.7769 16.8828C13.7769 16.8828 13.8055 16.8255 13.8628 16.7109C13.9201 16.5964 13.9487 16.4766 13.9487 16.3516C13.9487 16.1641 13.8576 16.0391 13.6753 15.9766C13.493 15.9141 13.4019 15.8828 13.4019 15.8828L9.58936 14.6641C9.58936 14.6641 9.51904 14.6562 9.37842 14.6406C9.23779 14.625 9.10498 14.6797 8.97998 14.8047ZM8.79248 13.1016C8.88623 13.2682 9.02946 13.349 9.22217 13.3438C9.41488 13.3385 9.51123 13.3359 9.51123 13.3359L13.3237 12.2109C13.3237 12.2109 13.4123 12.1667 13.5894 12.0781C13.7664 11.9896 13.8758 11.8776 13.9175 11.7422C13.9487 11.5964 13.9409 11.4557 13.894 11.3203C13.8472 11.1849 13.8237 11.1172 13.8237 11.1172L12.0112 8.99219C12.0112 8.99219 11.9696 8.94531 11.8862 8.85156C11.8029 8.75781 11.6831 8.70052 11.5269 8.67969C11.3394 8.66927 11.1935 8.73438 11.0894 8.875C10.9852 9.01562 10.9331 9.08594 10.9331 9.08594L8.79248 12.4609C8.79248 12.4609 8.76904 12.5286 8.72217 12.6641C8.67529 12.7995 8.69873 12.9453 8.79248 13.1016ZM6.99561 11.7891C7.21436 11.7266 7.35498 11.5833 7.41748 11.3594C7.47998 11.1354 7.51123 11.0234 7.51123 11.0234L7.47998 5.63281C7.47998 5.63281 7.45654 5.51302 7.40967 5.27344C7.36279 5.03385 7.26123 4.86719 7.10498 4.77344C6.87581 4.6276 6.71436 4.56771 6.62061 4.59375C6.52686 4.61979 6.44352 4.63802 6.37061 4.64844L3.22998 5.83594C3.22998 5.83594 3.17008 5.86198 3.05029 5.91406C2.9305 5.96615 2.82894 6.05469 2.74561 6.17969C2.63102 6.36719 2.64144 6.5651 2.77686 6.77344C2.91227 6.98177 2.97998 7.08594 2.97998 7.08594L6.26123 11.5391C6.26123 11.5391 6.33154 11.5911 6.47217 11.6953C6.61279 11.7995 6.78727 11.8307 6.99561 11.7891ZM6.21436 13.9766C6.22477 13.7682 6.14404 13.6042 5.97217 13.4844C5.80029 13.3646 5.71436 13.3047 5.71436 13.3047L2.32373 11.5859C2.32373 11.5859 2.22998 11.5573 2.04248 11.5C1.85498 11.4427 1.69873 11.4505 1.57373 11.5234C1.4904 11.5859 1.40967 11.6615 1.33154 11.75C1.25342 11.8385 1.21436 11.9245 1.21436 12.0078L0.97998 14.7266C0.97998 14.7266 0.97998 14.8151 0.97998 14.9922C0.97998 15.1693 1.01123 15.3099 1.07373 15.4141C1.16748 15.5703 1.31592 15.625 1.51904 15.5781C1.72217 15.5312 1.82373 15.5078 1.82373 15.5078L5.77686 14.6328C5.84977 14.5807 5.93831 14.526 6.04248 14.4688C6.14665 14.4115 6.20394 14.2474 6.21436 13.9766ZM7.19873 15.4297C7.02165 15.3464 6.85238 15.3594 6.69092 15.4688C6.52946 15.5781 6.44873 15.6328 6.44873 15.6328L3.80811 18.5391C3.80811 18.5391 3.75602 18.625 3.65186 18.7969C3.54769 18.9688 3.51644 19.1224 3.55811 19.2578C3.59977 19.3828 3.65446 19.4818 3.72217 19.5547C3.78988 19.6276 3.87061 19.6901 3.96436 19.7422L6.62061 20.5703C6.62061 20.5703 6.68311 20.5781 6.80811 20.5938C6.93311 20.6094 7.05811 20.6016 7.18311 20.5703C7.34977 20.5182 7.43831 20.3984 7.44873 20.2109C7.45915 20.0234 7.46436 19.9297 7.46436 19.9297L7.52686 15.9766C7.52686 15.9766 7.51123 15.9062 7.47998 15.7656C7.44873 15.625 7.35498 15.513 7.19873 15.4297Z" fill="white"/>
    </g>
    <defs>
        <clipPath id="clip0_1_137">
            <rect width="16" height="24" fill="white" transform="matrix(1 0 0 -1 0.97998 24.5)"/>
        </clipPath>
    </defs>
</svg>
